<?xml version="1.0" standalone="no"?>
<!DOCTYPE svg PUBLIC "-//W3C//DTD SVG 20010904//EN"
 "http://www.w3.org/TR/2001/REC-SVG-20010904/DTD/svg10.dtd">
<svg version="1.0" xmlns="http://www.w3.org/2000/svg"
 width="512.000000pt" height="512.000000pt" viewBox="0 0 512.000000 512.000000"
 preserveAspectRatio="xMidYMid meet">

<g transform="translate(0.000000,512.000000) scale(0.100000,-0.100000)"
fill="#000000" stroke="none">
<path d="M776 4137 c-109 -61 -106 -221 5 -277 38 -20 67 -20 1779 -20 1712 0
1741 0 1779 20 113 57 113 223 0 280 -38 20 -67 20 -1781 20 l-1743 0 -39 -23z"/>
<path d="M770 3228 c-19 -13 -45 -43 -57 -68 l-23 -44 0 -556 0 -556 23 -44
c33 -66 78 -93 147 -88 52 4 78 18 510 289 496 310 494 308 494 399 0 91 2 89
-494 399 -432 271 -458 285 -510 289 -45 3 -61 0 -90 -20z m444 -548 c102 -63
185 -117 185 -120 0 -5 -361 -231 -380 -238 -5 -2 -9 100 -9 238 0 138 4 240
9 238 5 -1 92 -55 195 -118z"/>
<path d="M2495 3186 c-94 -41 -124 -168 -58 -247 52 -62 10 -59 978 -59 861 0
887 1 924 20 113 57 113 223 0 280 -37 19 -62 20 -926 20 -716 -1 -894 -3
-918 -14z"/>
<path d="M2495 2226 c-94 -41 -124 -168 -58 -247 52 -62 10 -59 978 -59 861 0
887 1 924 20 113 57 113 223 0 280 -37 19 -62 20 -926 20 -716 -1 -894 -3
-918 -14z"/>
<path d="M776 1257 c-109 -61 -106 -221 5 -277 38 -20 67 -20 1779 -20 1712 0
1741 0 1779 20 113 57 113 223 0 280 -38 20 -67 20 -1781 20 l-1743 0 -39 -23z"/>
</g>
</svg>
