<?xml version="1.0" standalone="no"?>
<!DOCTYPE svg PUBLIC "-//W3C//DTD SVG 20010904//EN"
 "http://www.w3.org/TR/2001/REC-SVG-20010904/DTD/svg10.dtd">
<svg version="1.0" xmlns="http://www.w3.org/2000/svg"
 width="512.000000pt" height="512.000000pt" viewBox="0 0 512.000000 512.000000"
 preserveAspectRatio="xMidYMid meet">

<g transform="translate(0.000000,512.000000) scale(0.100000,-0.100000)"
fill="#000000" stroke="none">
<path d="M1050 4055 l0 -215 1705 0 1705 0 0 215 0 215 -1705 0 -1705 0 0
-215z"/>
<path d="M1503 2997 c-354 -226 -643 -414 -643 -417 1 -3 291 -195 645 -427
l645 -422 0 840 c0 461 -1 839 -2 838 -2 0 -292 -186 -645 -412z"/>
<path d="M2880 3050 l0 -210 790 0 790 0 0 210 0 210 -790 0 -790 0 0 -210z"/>
<path d="M2880 2070 l0 -210 790 0 790 0 0 210 0 210 -790 0 -790 0 0 -210z"/>
<path d="M1050 1065 l0 -215 1705 0 1705 0 0 215 0 215 -1705 0 -1705 0 0
-215z"/>
</g>
</svg>
